# File created by Blade
# Date/Time:  Tue Jan 27 18:12:42 2015
# Frame Rate: 120.000 fps
#------------------------------------------------------
:FULLY-SPECIFIED
:DEGREES
3418
root -1.454960 31.869856 -6.816448 6.598849 -11.034411 1.362148
Spine -3.751294 -25.724690 -2.184971
Head 15.158760 38.851292 18.033447
LeftShoulder -17.665612 18.594754 3.369016
LeftArm 25.803031 37.420787 -70.489993
LeftForeArm -1.209669 0.000000 18.444064
LeftHand -11.270244 0.000000 -2.349736
LeftHandThumb1 -26.253704 0.000000 33.147579
RightShoulder -22.953255 -11.066478 -20.267944
RightArm -34.344036 60.723055 40.388350
RightForeArm 32.949039 -0.000000 111.070631
RightHand -16.283105 -0.000000 -15.672483
RightHandThumb1 -24.326973 -0.000000 -32.862282
LeftUpLeg -0.442478 10.626779 -0.978559
LeftLeg -0.003170 -0.000000 0.000000
LeftFoot -21.868024 22.029203 -27.054305
LeftToeBase 8.918784 -0.000000 -0.000000
RightUpLeg -3.505337 6.621499 -3.642249
RightLeg -2.580235 -0.000000 0.000000
RightFoot -11.710589 -6.395516 8.838697
RightToeBase 4.476586 -0.000000 -0.000000
3419
root -1.443905 31.869075 -6.814922 6.596389 -11.270812 1.364093
Spine -3.735167 -25.662997 -2.143325
Head 15.018763 39.205063 17.862959
LeftShoulder -17.667431 18.607395 3.362014
LeftArm 25.835401 37.434167 -70.522937
LeftForeArm -1.131049 0.000000 18.485268
LeftHand -11.201724 -0.000000 -2.417471
LeftHandThumb1 -26.253704 0.000000 33.147579
RightShoulder -22.947094 -11.032451 -20.237039
RightArm -34.365118 60.720322 40.368510
RightForeArm 33.055163 -0.000000 111.121252
RightHand -16.348101 0.000000 -15.498516
RightHandThumb1 -24.326973 -0.000000 -32.862282
LeftUpLeg -0.415759 10.737606 -1.032993
LeftLeg -0.012119 -0.000000 0.000000
LeftFoot -21.987015 22.144902 -27.165634
LeftToeBase 8.932564 -0.000000 -0.000000
RightUpLeg -3.535787 6.713745 -3.682538
RightLeg -2.602976 -0.000000 0.000000
RightFoot -11.657968 -6.279643 8.803255
RightToeBase 4.460896 -0.000000 -0.000000
3420
root -1.437308 31.868888 -6.815007 6.597849 -11.476965 1.353171
Spine -3.718780 -25.648404 -2.094866
Head 14.892827 39.582203 17.710400
LeftShoulder -17.660994 18.600443 3.368869
LeftArm 25.820105 37.447253 -70.574389
LeftForeArm -1.094172 -0.000000 18.535538
LeftHand -11.258195 0.000000 -2.370931
LeftHandThumb1 -26.253704 0.000000 33.147579
RightShoulder -22.918199 -10.999452 -20.202301
RightArm -34.405566 60.657773 40.325097
RightForeArm 33.261119 0.000000 111.140362
RightHand -16.185849 -0.000000 -15.582117
RightHandThumb1 -24.326973 -0.000000 -32.862282
LeftUpLeg -0.395644 10.798762 -1.047849
LeftLeg -0.011982 -0.000000 0.000000
LeftFoot -22.027389 22.257745 -27.137822
LeftToeBase 8.876360 -0.000000 -0.000000
RightUpLeg -3.563152 6.782622 -3.701048
RightLeg -2.626762 -0.000000 0.000000
RightFoot -11.601370 -6.165593 8.782932
RightToeBase 4.483302 -0.000000 -0.000000
3421
root -1.425925 31.868438 -6.813662 6.592219 -11.674256 1.366144
Spine -3.697507 -25.640278 -2.052866
Head 14.734966 39.944749 17.512963
LeftShoulder -17.632732 18.566960 3.380460
LeftArm 25.784419 37.484448 -70.640608
LeftForeArm -1.077129 -0.000000 18.545484
LeftHand -11.279774 -0.000000 -2.444728
LeftHandThumb1 -26.253704 0.000000 33.147579
RightShoulder -22.903534 -10.944131 -20.197831
RightArm -34.402773 60.553563 40.338112
RightForeArm 33.090228 -0.000000 111.186844
RightHand -16.114845 -0.000000 -15.253509
RightHandThumb1 -24.326973 -0.000000 -32.862282
LeftUpLeg -0.372582 10.877816 -1.100106
LeftLeg -0.016541 -0.000000 0.000000
LeftFoot -22.077969 22.356010 -27.163147
LeftToeBase 8.883885 -0.000000 -0.000000
RightUpLeg -3.586715 6.836254 -3.745542
RightLeg -2.648311 -0.000000 0.000000
RightFoot -11.560193 -6.052162 8.771919
RightToeBase 4.491841 -0.000000 -0.000000
3422
root -1.415733 31.868476 -6.814774 6.594111 -11.877417 1.372614
Spine -3.678402 -25.619104 -2.012396
Head 14.573864 40.252475 17.323579
LeftShoulder -17.634581 18.566587 3.374777
LeftArm 25.837424 37.567417 -70.602826
LeftForeArm -1.071483 -0.000000 18.570931
LeftHand -11.158417 -0.000000 -2.574341
LeftHandThumb1 -26.253704 0.000000 33.147579
RightShoulder -22.889744 -10.915804 -20.191295
RightArm -34.368331 60.495765 40.404806
RightForeArm 33.021483 -0.000000 111.234441
RightHand -16.171967 -0.000000 -15.637552
RightHandThumb1 -24.326973 -0.000000 -32.862282
LeftUpLeg -0.359599 10.944230 -1.143835
LeftLeg -0.020859 -0.000000 0.000000
LeftFoot -22.140638 22.459412 -27.207807
LeftToeBase 8.848093 -0.000000 -0.000000
RightUpLeg -3.617968 6.903781 -3.783833
RightLeg -2.677500 -0.000000 0.000000
RightFoot -11.498437 -5.979431 8.729813
RightToeBase 4.466731 -0.000000 -0.000000
3423
root -1.404726 31.868263 -6.815343 6.597565 -12.067185 1.400519
Spine -3.663344 -25.617684 -1.991768
Head 14.399826 40.568538 17.132387
LeftShoulder -17.673445 18.554199 3.358696
LeftArm 25.903193 37.661039 -70.566245
LeftForeArm -1.050688 -0.000000 18.580183
LeftHand -11.198951 -0.000000 -2.548040
LeftHandThumb1 -26.253704 0.000000 33.147579
RightShoulder -22.878840 -10.885295 -20.191884
RightArm -34.458383 60.489889 40.363131
RightForeArm 33.111461 -0.000000 111.275782
RightHand -16.144134 -0.000000 -15.410750
RightHandThumb1 -24.326973 -0.000000 -32.862282
LeftUpLeg -0.349939 11.022527 -1.212648
LeftLeg -0.036302 -0.000000 0.000000
LeftFoot -22.191874 22.549710 -27.253082
LeftToeBase 8.851183 -0.000000 -0.000000
RightUpLeg -3.691622 6.840486 -3.828892
RightLeg -2.618454 -0.000000 0.000000
RightFoot -11.486019 -5.787346 8.662609
RightToeBase 4.443508 -0.000000 -0.000000
3424
root -1.386472 31.868697 -6.818573 6.603987 -12.214161 1.450747
Spine -3.642405 -25.638159 -1.966429
Head 14.186679 40.848760 16.889825
LeftShoulder -17.649037 18.513302 3.342037
LeftArm 25.937729 37.726185 -70.564656
LeftForeArm -1.033285 -0.000000 18.552501
LeftHand -11.268591 -0.000000 -2.479354
LeftHandThumb1 -26.253704 0.000000 33.147579
RightShoulder -22.885017 -10.830029 -20.203463
RightArm -34.585347 60.428068 40.274031
RightForeArm 33.158297 0.000000 111.336148
RightHand -16.049918 -0.000000 -15.232631
RightHandThumb1 -24.326973 -0.000000 -32.862282
LeftUpLeg -0.374333 11.035648 -1.322102
LeftLeg -0.026329 -0.000000 0.000000
LeftFoot -22.292008 22.677786 -27.353156
LeftToeBase 8.914819 -0.000000 -0.000000
RightUpLeg -3.862786 6.435425 -3.864116
RightLeg -2.364572 -0.000000 0.000000
RightFoot -11.543315 -5.385697 8.427018
RightToeBase 4.359314 -0.000000 -0.000000
3425
root -1.377224 31.868422 -6.819980 6.605733 -12.351010 1.466959
Spine -3.622893 -25.665202 -1.936220
Head 14.030039 41.090372 16.717767
LeftShoulder -17.639424 18.477479 3.348408
LeftArm 25.951286 37.799643 -70.561843
LeftForeArm -1.046876 0.000000 18.550132
LeftHand -11.290034 -0.000000 -2.478719
LeftHandThumb1 -26.253704 0.000000 33.147579
RightShoulder -22.886407 -10.867361 -20.188457
RightArm -34.557336 60.412496 40.350767
RightForeArm 33.118486 -0.000000 111.391960
RightHand -16.100279 0.000000 -15.625448
RightHandThumb1 -24.326973 -0.000000 -32.862282
LeftUpLeg -0.373204 11.075283 -1.363146
LeftLeg -0.022296 -0.000000 0.000000
LeftFoot -22.292860 22.748227 -27.317096
LeftToeBase 8.875517 -0.000000 -0.000000
RightUpLeg -3.889547 6.483675 -3.906515
RightLeg -2.383560 -0.000000 0.000000
RightFoot -11.515589 -5.314923 8.437882
RightToeBase 4.388319 -0.000000 -0.000000
